<svg width="35" height="29" viewBox="0 0 35 29" fill="none" xmlns="http://www.w3.org/2000/svg">
<path d="M12.505 21.7806H29.6C30.1706 21.7806 30.6687 21.3119 30.6687 20.6819C30.6687 20.0519 30.1706 19.5831 29.6 19.5831H12.7537C11.9187 19.5831 11.4062 18.9969 11.2744 18.1038L11.04 16.5656H29.6287C31.7675 16.5656 32.8662 15.2469 33.1737 13.1525L34.3456 5.40313C34.3767 5.21911 34.3963 5.03334 34.4044 4.84688C34.4044 4.14376 33.8769 3.66001 33.0712 3.66001H9.15061L8.87186 1.80001C8.72561 0.671881 8.31561 0.100006 6.82186 0.100006H1.67936C1.09374 0.100006 0.595612 0.613756 0.595612 1.20001C0.595612 1.80001 1.09374 2.31313 1.67999 2.31313H6.63061L8.97436 18.3969C9.28249 20.4769 10.3806 21.7806 12.505 21.7806ZM31.9137 5.87188L30.875 12.8888C30.7575 13.7969 30.2744 14.3538 29.41 14.3538L10.7187 14.3681L9.47311 5.87188H31.9137ZM13.6625 28.9C13.9748 28.9026 14.2846 28.843 14.5737 28.7246C14.8628 28.6063 15.1254 28.4316 15.3463 28.2107C15.5672 27.9898 15.7419 27.7272 15.8602 27.4381C15.9786 27.149 16.0382 26.8392 16.0356 26.5269C16.0369 26.2149 15.9765 25.9057 15.8577 25.6172C15.7389 25.3286 15.5641 25.0665 15.3435 24.8459C15.1229 24.6252 14.8607 24.4505 14.5722 24.3317C14.2837 24.2129 13.9745 24.1524 13.6625 24.1538C12.33 24.1538 11.275 25.2088 11.275 26.5269C11.275 27.86 12.33 28.9 13.6625 28.9ZM27.3587 28.9C28.6919 28.9 29.7462 27.86 29.7462 26.5269C29.7462 25.2081 28.6919 24.1538 27.3587 24.1538C26.0406 24.1538 24.9712 25.2088 24.9712 26.5269C24.9712 27.86 26.0406 28.9 27.3587 28.9Z" fill="#333333"/>
</svg>
