<svg width="28" height="26" viewBox="0 0 28 26" fill="none" xmlns="http://www.w3.org/2000/svg">
<path d="M24.6065 14.713L16.121 23.2C15.5584 23.7624 14.7955 24.0784 14 24.0784C13.2045 24.0784 12.4416 23.7624 11.879 23.2L3.3935 14.7145C2.69205 14.0192 2.13485 13.1921 1.75389 12.2809C1.37293 11.3697 1.1757 10.3921 1.17354 9.40445C1.17138 8.41678 1.36432 7.4384 1.74129 6.52549C2.11826 5.61258 2.67183 4.78312 3.37022 4.08473C4.06862 3.38634 4.89808 2.83276 5.81099 2.4558C6.72389 2.07883 7.70227 1.88589 8.68995 1.88805C9.67762 1.89021 10.6551 2.08744 11.5664 2.4684C12.4776 2.84936 13.3047 3.40656 14 4.10801C15.4123 2.73081 17.3104 1.9655 19.283 1.97786C21.2557 1.99022 23.144 2.77926 24.539 4.17404C25.934 5.56882 26.7233 7.45704 26.7359 9.42966C26.7485 11.4023 25.9835 13.3005 24.6065 14.713Z" stroke="#333333" stroke-width="2" stroke-linecap="round" stroke-linejoin="round"/>
</svg>
