<svg width="16" height="27" viewBox="0 0 16 27" fill="none" xmlns="http://www.w3.org/2000/svg">
<path d="M14.7449 1.16975C15.1081 1.53309 15.3121 2.02581 15.3121 2.53956C15.3121 3.05332 15.1081 3.54604 14.7449 3.90938L5.15425 13.5L14.7449 23.0906C15.0978 23.456 15.2931 23.9455 15.2887 24.4535C15.2843 24.9615 15.0805 25.4474 14.7213 25.8067C14.362 26.1659 13.8761 26.3696 13.3681 26.3741C12.8601 26.3785 12.3707 26.1832 12.0053 25.8302L1.04481 14.8698C0.681587 14.5065 0.477539 14.0138 0.477539 13.5C0.477539 12.9862 0.681587 12.4935 1.04481 12.1302L12.0053 1.16975C12.3686 0.806527 12.8613 0.602478 13.3751 0.602478C13.8888 0.602478 14.3815 0.806527 14.7449 1.16975Z" fill="#333333"/>
</svg>
