<svg width="20" height="20" viewBox="0 0 20 20" fill="none" xmlns="http://www.w3.org/2000/svg">
<path d="M16.3076 10.685L5.47423 18.185C5.3492 18.2715 5.2029 18.3222 5.05115 18.3315C4.89941 18.3408 4.748 18.3084 4.61333 18.2379C4.47866 18.1673 4.36586 18.0613 4.28714 17.9312C4.20842 17.8011 4.16678 17.652 4.16673 17.5V2.49999C4.16663 2.34789 4.20815 2.19866 4.28682 2.06848C4.36548 1.93829 4.47827 1.83212 4.61296 1.76147C4.74766 1.69082 4.89913 1.65837 5.05095 1.66766C5.20276 1.67695 5.34915 1.72761 5.47423 1.81416L16.3076 9.31416C16.4179 9.39119 16.5081 9.49372 16.5703 9.61306C16.6325 9.73239 16.665 9.86499 16.665 9.99958C16.665 10.1342 16.6325 10.2668 16.5703 10.3861C16.5081 10.5054 16.4179 10.608 16.3076 10.685Z" fill="#735184"/>
</svg>
