<svg width="36" height="36" viewBox="0 0 36 36" fill="none" xmlns="http://www.w3.org/2000/svg">
<path d="M28.6065 19.713L20.121 28.2C19.5584 28.7624 18.7955 29.0783 18 29.0783C17.2045 29.0783 16.4416 28.7624 15.879 28.2L7.3935 19.7145C6.69205 19.0191 6.13485 18.1921 5.75389 17.2809C5.37293 16.3696 5.1757 15.3921 5.17354 14.4044C5.17138 13.4167 5.36432 12.4384 5.74129 11.5255C6.11826 10.6126 6.67183 9.78309 7.37022 9.0847C8.06862 8.38631 8.89808 7.83273 9.81099 7.45577C10.7239 7.0788 11.7023 6.88586 12.6899 6.88802C13.6776 6.89018 14.6551 7.08741 15.5664 7.46837C16.4776 7.84933 17.3047 8.40653 18 9.10798C19.4123 7.73078 21.3104 6.96547 23.283 6.97783C25.2557 6.99019 27.144 7.77923 28.539 9.17401C29.934 10.5688 30.7233 12.457 30.7359 14.4296C30.7485 16.4023 29.9835 18.3004 28.6065 19.713Z" stroke="#735184" stroke-width="2" stroke-linecap="round" stroke-linejoin="round"/>
</svg>
