<svg width="16" height="27" viewBox="0 0 16 27" fill="none" xmlns="http://www.w3.org/2000/svg">
<path d="M1.25513 1.16975C0.8919 1.53309 0.687851 2.02581 0.687851 2.53956C0.687851 3.05332 0.8919 3.54604 1.25513 3.90938L10.8457 13.5L1.25513 23.0906C0.902194 23.456 0.706904 23.9455 0.711319 24.4535C0.715734 24.9615 0.919498 25.4474 1.27873 25.8067C1.63795 26.1659 2.1239 26.3696 2.63191 26.3741C3.13992 26.3785 3.62933 26.1832 3.99475 25.8302L14.9552 14.8698C15.3184 14.5065 15.5225 14.0138 15.5225 13.5C15.5225 12.9862 15.3184 12.4935 14.9552 12.1302L3.99475 1.16975C3.63141 0.806527 3.13869 0.602478 2.62494 0.602478C2.11118 0.602478 1.61846 0.806527 1.25513 1.16975Z" fill="#333333"/>
</svg>
