<svg width="29" height="29" viewBox="0 0 29 29" fill="none" xmlns="http://www.w3.org/2000/svg">
<path d="M25.8672 23.8678L20.5379 18.5385C21.821 16.8304 22.5136 14.7513 22.5112 12.615C22.5112 7.15824 18.0718 2.71875 12.615 2.71875C7.15824 2.71875 2.71875 7.15824 2.71875 12.615C2.71875 18.0718 7.15824 22.5112 12.615 22.5112C14.7513 22.5136 16.8304 21.821 18.5385 20.5379L23.8678 25.8672C24.1376 26.1084 24.4894 26.2371 24.8511 26.227C25.2128 26.2168 25.5569 26.0686 25.8128 25.8128C26.0686 25.5569 26.2168 25.2128 26.227 24.8511C26.2371 24.4894 26.1084 24.1376 25.8672 23.8678ZM5.54625 12.615C5.54625 11.2169 5.96082 9.85026 6.73755 8.68781C7.51427 7.52536 8.61826 6.61934 9.90991 6.08433C11.2016 5.54931 12.6228 5.40932 13.994 5.68207C15.3652 5.95482 16.6248 6.62806 17.6134 7.61664C18.6019 8.60522 19.2752 9.86475 19.5479 11.236C19.8207 12.6072 19.6807 14.0284 19.1457 15.3201C18.6107 16.6117 17.7046 17.7157 16.5422 18.4924C15.3797 19.2692 14.0131 19.6838 12.615 19.6838C10.7409 19.6815 8.94428 18.936 7.61912 17.6109C6.29396 16.2857 5.5485 14.4891 5.54625 12.615Z" fill="#BDBDBD"/>
</svg>
